<svg xmlns="http://www.w3.org/2000/svg" xmlns:xlink="http://www.w3.org/1999/xlink" viewBox="0,0,256,256" width="96px" height="96px" fill-rule="nonzero"><g fill="#ffffff" fill-rule="nonzero" stroke="none" stroke-width="1" stroke-linecap="butt" stroke-linejoin="miter" stroke-miterlimit="10" stroke-dasharray="" stroke-dashoffset="0" font-family="none" font-weight="none" font-size="none" text-anchor="none" style="mix-blend-mode: normal"><g transform="scale(10.66667,10.66667)"><path d="M12.01,2.02c-0.16,0 -0.32,0 -0.48,0.01c-5.51,0.26 -9.77,4.93 -9.52,10.45c0.25,5.36 4.67,9.54 9.98,9.54c0.16,0 0.31,-0.01 0.47,-0.02c5.51,-0.25 9.78,-4.93 9.53,-10.45c-0.25,-5.35 -4.67,-9.53 -9.98,-9.53zM15.77,13.78c-0.47,1.16 -1.33,2.22 -2.93,2.22c0,0 -0.68,-4.95 -0.69,-5.06c-0.04,0.12 -0.99,2.72 -0.99,2.72c-0.45,1.2 -1.31,2.33 -2.91,2.34l-1.25,-8c1.04,0 2.32,0.9 2.41,2.37c0,0 0.16,2.93 0.17,3.17c0.09,-0.25 1.17,-3.2 1.17,-3.2c0.43,-1.21 1.24,-2.34 2.77,-2.34c0,0 0.65,5.28 0.68,5.52c0.06,-0.24 0.96,-3.18 0.96,-3.18c0.43,-1.21 1.26,-2.34 2.84,-2.34z"></path></g></g></svg>